<?xml version="1.0" encoding="utf-8"?>
<svg version="1.1" x="0px" y="0px" viewBox="0 0 1000 1000" enable-background="new 0 0 1000 1000" xmlns="http://www.w3.org/2000/svg">
  <g>
    <g id="_x34_4-18Plus_movie">
      <g>
        <path d="M320,666.9V400.8h-61.5v-68.2h146.4v334.2H320z" style="fill: rgb(11, 214, 221);"/>
      </g>
      <g>
        <path d="M723.9,418.9c0,29.1-15.7,54.8-42,69.1c36.7,15.3,59.6,47.2,59.6,84.4c0,60.1-53.4,98.2-136.8,98.2c-83.4,0-136.8-37.7-136.8-96.8c0-38.1,24.8-70.6,63.4-85.8c-28.1-15.7-46.3-42.4-46.3-71.5c0-53.4,46.7-87.3,119.2-87.3C677.6,329.3,723.9,364.1,723.9,418.9z M547.9,565.3c0,28.1,20,43.9,56.7,43.9c36.7,0,57.2-15.3,57.2-43.9c0-27.7-20.5-43.4-57.2-43.4C567.9,521.9,547.9,537.7,547.9,565.3z M556.5,423.7c0,23.8,17.2,37.2,48.2,37.2c31,0,48.2-13.3,48.2-37.2c0-24.8-17.2-38.6-48.2-38.6C573.7,385.1,556.5,398.9,556.5,423.7z" style="fill: rgb(11, 214, 221);"/>
      </g>
      <g>
        <path d="M882.7,370.4C896.8,412,904,455.6,904,500c0,222.8-181.2,404-404,404C277.2,904,96,722.8,96,500C96,277.2,277.2,96,500,96c44.4,0,88,7.2,129.6,21.3V27.4C587.6,15.8,544.1,10,500,10C229.8,10,10,229.8,10,500c0,270.2,219.8,490,490,490c270.2,0,490-219.8,490-490c0-44.1-5.8-87.6-17.4-129.6H882.7L882.7,370.4z" style="fill: rgb(11, 214, 221);"/>
      </g>
      <g>
        <polygon points="858.3,141.4 858.3,47.5 790.7,47.5 790.7,141.4 697.3,141.4 697.3,209 790.7,209 790.7,303 858.3,303 858.3,209 952.2,209 952.2,141.4 " style="fill: rgb(11, 214, 221);"/>
      </g>
    </g>
    <g/>
    <g/>
    <g/>
    <g/>
    <g/>
    <g/>
    <g/>
    <g/>
    <g/>
    <g/>
    <g/>
    <g/>
    <g/>
    <g/>
    <g/>
  </g>
</svg>