<?xml version="1.0" encoding="utf-8"?>
<svg version="1.1" x="0px" y="0px" viewBox="0 0 1000 1000" enable-background="new 0 0 1000 1000" xmlns="http://www.w3.org/2000/svg">
  <g>
    <g transform="translate(0.000000,511.000000) scale(0.100000,-0.100000)">
      <path d="M4885.8,4654.2c-48.6-13.6-1124.5-564.2-2392.9-1221.7C66.9,2171.8,100,2191.3,100,2064.8c0-23.3,50.6-147.9,114.8-276.3c122.6-247.1,184.8-321,309.3-356c48.6-13.6,1511.6-19.5,4493.9-19.5c4811,0,4493.9-7.8,4610.7,103.1c25.3,23.3,99.2,147.9,163.4,274.3c128.4,256.8,138.1,328.8,50.6,412.4c-62.3,60.3-4653.4,2435.7-4750.7,2459C4994.7,4685.3,4992.8,4685.3,4885.8,4654.2z M5162,3747.6c48.6-99.2,62.3-110.9,184.8-145.9c140.1-40.9,268.5-163.4,289.9-274.3c19.5-108.9-5.9-134.2-149.8-140.1c-169.3-7.8-194.5,1.9-266.5,103.1c-54.5,77.8-70,87.5-138.1,87.5c-105.1,0-169.3-33.1-196.5-97.3c-44.7-107,23.3-165.4,284-245.1c414.4-124.5,513.6-215.9,513.6-470.8c-1.9-210.1-128.4-373.5-342.4-441.6c-118.7-37-130.4-46.7-179-145.9c-21.4-44.7-48.6-70-77.8-73.9c-54.5-7.8-120.6,44.7-120.6,95.3c0,42.8-64.2,87.5-155.6,105c-153.7,33.1-284,134.2-338.5,266.5c-40.9,95.3-38.9,124.5,7.8,171.2c29.2,29.2,64.2,38.9,147.9,38.9c132.3,0,169.2-17.5,223.7-114.8c50.6-89.5,105-118.7,223.7-118.7c163.4,0,258.7,159.5,157.6,260.7c-27.2,27.2-142,75.9-299.6,126.4c-276.2,89.5-394.9,165.4-445.5,287.9c-89.5,212.1,40.8,478.6,274.3,558.3c157.6,54.5,190.6,75.9,206.2,134.2C5000.6,3846.9,5105.6,3864.4,5162,3747.6z" style="fill: rgb(11, 214, 221);"/>
      <path d="M1393.7,981.2c-62.3-33.1-87.5-75.9-87.5-151.7c0-85.6,58.4-149.8,155.6-167.3c101.2-19.5,136.2-42.8,165.4-110.9c21.4-54.5,11.7-311.3-77.8-1813.1c-56.4-963-105-1752.8-105-1752.8c-2-2-79.8-5.8-173.1-11.7c-239.3-11.7-336.6-75.9-375.5-245.1c-31.1-140.1,73.9-315.2,215.9-354.1c93.4-25.3,7688.3-27.2,7779.8,0c77.8,21.4,173.1,105.1,200.4,175.1c29.2,77.8,21.4,206.2-17.5,272.4c-60.3,105.1-147.9,142-340.4,151.7l-171.2,7.8l-7.8,62.3c-5.8,33.1-23.3,322.9-40.8,643.9c-17.5,321-60.3,1081.7-97.3,1692.5c-54.5,941.6-60.3,1118.6-38.9,1171.1c29.2,68.1,64.2,91.4,165.4,110.9c93.4,17.5,155.6,81.7,155.6,159.5c0,182.9,1.9,182.9-885.2,182.9h-752.9l-58.4-58.4c-50.6-52.5-58.4-70-48.6-132.3c15.6-87.5,70-136.2,171.2-151.7c101.2-17.5,173.1-101.2,173.1-200.4c0-40.8-44.7-828.7-97.3-1752.8c-54.5-924.1-97.3-1690.6-97.3-1706.1c0-21.4-124.5-25.3-686.7-25.3H5732l-101.2,1762.6c-93.4,1589.4-99.2,1766.4-73.9,1819c33.1,64.2,68.1,85.6,169.3,103.1c149.8,27.2,204.3,198.4,91.4,291.8l-60.3,50.6h-758.7h-758.7l-56.4-56.4c-107-108.9-50.6-256.8,110.9-286c93.4-15.6,159.5-73.9,173.1-151.7c5.8-33.1-33.1-817.1-87.5-1741.1c-52.5-922.1-97.3-1704.2-97.3-1735.3v-56.4h-690.6h-690.6v58.4c0,33.1-44.7,819-97.3,1747c-54.5,928-93.4,1710-85.6,1739.2c13.6,70,87.5,126.5,182.9,142c151.7,25.3,204.3,177,99.2,284l-56.4,56.4h-756.8C1679.7,1002.6,1419,996.8,1393.7,981.2z" style="fill: rgb(11, 214, 221);"/>
      <path d="M520.2-3859c-31.1-9.7-77.8-37-103.1-62.3c-153.7-142-136.2-361.8,38.9-490.3l54.5-40.8l4447.2-5.8c2887-2,4470.6,1.9,4517.3,15.6c38.9,9.7,101.1,50.6,138.1,87.5c64.2,66.2,68.1,77.8,68.1,204.3s-3.9,138.1-68.1,204.3c-37,37-97.3,77.8-136.2,87.5C9391.4-3835.6,601.9-3835.6,520.2-3859z" style="fill: rgb(11, 214, 221);"/>
    </g>
  </g>
</svg>