<?xml version="1.0" encoding="UTF-8"?>
<!DOCTYPE svg PUBLIC "-//W3C//DTD SVG 1.1//EN" "http://www.w3.org/Graphics/SVG/1.1/DTD/svg11.dtd">
<!-- Creator: CorelDRAW -->
<svg xmlns="http://www.w3.org/2000/svg" xml:space="preserve" width="334.842mm" height="125.947mm" version="1.1" style="shape-rendering:geometricPrecision; text-rendering:geometricPrecision; image-rendering:optimizeQuality; fill-rule:evenodd; clip-rule:evenodd"
viewBox="0 0 8455.48 3180.44"
 xmlns:xlink="http://www.w3.org/1999/xlink"
 xmlns:xodm="http://www.corel.com/coreldraw/odm/2003">
 <defs>
  <style type="text/css">
   <![CDATA[
    .fil2 {fill:none}
    .fil4 {fill:#01E5EE}
    .fil3 {fill:#0BD6DD}
    .fil1 {fill:#0DD141}
    .fil0 {fill:#52E161}
    .fil8 {fill:#FB741A}
    .fil5 {fill:#FCCB02}
    .fil7 {fill:#FDA102}
    .fil6 {fill:#FDB002}
    .fil10 {fill:#FDD535}
    .fil9 {fill:#FFEA9B}
    .fil12 {fill:#52E161;fill-rule:nonzero}
    .fil11 {fill:white;fill-rule:nonzero}
   ]]>
  </style>
   <clipPath id="id0">
    <path d="M-0 618.19c324.46,-206.06 648.91,-412.12 973.37,-618.19 0,90.33 0,180.65 0,270.98 191.6,0.82 383.2,1.64 574.8,2.47 263.02,0 472.65,-2.97 661.02,222.18 159.76,207.39 127.74,421.42 129.95,666.46 -184.98,-111.7 -369.96,-223.41 -554.93,-335.11 -177.82,2.3 -355.63,4.61 -533.45,6.91 -123.19,104.87 -246.39,209.74 -369.58,314.61 -33.46,-15.12 -66.93,-30.24 -100.4,-45.36 -260.26,-161.65 -520.52,-323.3 -780.79,-484.95z"/>
   </clipPath>
   <clipPath id="id1">
    <path d="M3097.03 2543.64c-325.6,211.79 -651.19,423.59 -976.79,635.39 0,-92.84 0,-185.68 0,-278.52 -192.27,-0.85 -384.55,-1.69 -576.82,-2.54 -263.94,0 -474.31,3.06 -663.35,-228.36 -160.32,-213.16 -128.19,-433.14 -130.41,-685 185.63,114.81 371.25,229.62 556.88,344.43 178.44,-2.37 356.88,-4.74 535.32,-7.11 123.63,-107.79 247.25,-215.58 370.88,-323.36 33.58,15.54 67.17,31.08 100.75,46.62 261.18,166.15 522.36,332.3 783.53,498.44z"/>
   </clipPath>
   <clipPath id="id2">
    <path d="M134.73 767.2l2832.55 0c35.41,0 64.38,28.97 64.38,64.38l0 1507c0,35.41 -28.97,64.38 -64.38,64.38l-2832.55 0c-35.41,0 -64.38,-28.97 -64.38,-64.38l0 -1507c0,-35.41 28.97,-64.38 64.38,-64.38z"/>
   </clipPath>
   <clipPath id="id3">
    <path d="M257.04 1350.85c245.81,-23.55 348.58,-173.54 369.74,-395.65 613.89,-0.25 1227.79,-0.49 1841.68,-0.74 31.87,228.89 139.66,376.95 375.27,388.92 1.26,157.34 2.51,314.68 3.77,472.03 -223.9,22.73 -361.29,142.3 -377.72,397.25 -614.71,0.17 -1229.42,0.34 -1844.13,0.51 -12.81,-234.82 -144.01,-356.28 -364.87,-391.88 -1.24,-156.81 -2.49,-313.62 -3.74,-470.43z"/>
   </clipPath>
   <clipPath id="id4">
    <path d="M1489.55 1018.93c-0.27,0.28 -0.26,0.84 -0.09,22.34 0.17,21.5 0.51,63.95 0.67,85.18 0.17,21.22 0.17,21.22 0.17,20.85 0,-0.37 0,-1.12 -6.97,-0.18 -6.98,0.93 -20.93,3.55 -42.03,9.9 -21.11,6.35 -49.37,16.44 -76.73,29.89 -27.37,13.45 -53.84,30.27 -74.76,48.76 -20.92,18.49 -36.3,38.67 -49.54,61.84 -13.23,23.17 -24.33,49.32 -30.05,75.29 -5.72,25.97 -6.08,51.75 -4.83,75.85 1.25,24.1 4.11,46.52 11.45,67.82 7.33,21.3 19.14,41.48 33.98,60.16 14.84,18.68 32.73,35.87 55.08,50.63 22.36,14.76 49.19,27.09 76.37,37.18 27.18,10.09 54.73,17.93 87.28,25.22 32.55,7.29 70.11,14.01 98.19,21.67 28.08,7.66 46.68,16.25 59.74,23.91 13.06,7.66 20.57,14.39 24.5,23.54 3.93,9.15 4.3,20.74 -0.36,29.71 -4.65,8.97 -14.31,15.32 -27.72,20.18 -13.41,4.86 -30.58,8.22 -54.19,9.16 -23.61,0.93 -53.66,-0.56 -88.89,-5.42 -35.24,-4.86 -75.66,-13.08 -110.17,-25.6 -34.52,-12.52 -63.14,-29.33 -77.44,-37.74 -14.31,-8.41 -14.31,-8.41 -14.31,-8.41 0,0 0,0 -15.2,34.56 -15.2,34.56 -45.61,103.69 -60.81,138.25 -15.2,34.56 -15.2,34.56 -15.2,34.56 0,0 0,0 15.03,7.29 15.02,7.29 45.07,21.86 76.91,34 31.84,12.15 65.46,21.86 100.87,28.4 35.41,6.54 72.61,9.9 91.21,11.58 18.6,1.68 18.6,1.68 18.6,1.68 0,0 0,0 0.05,21.7 0.05,21.7 0.15,65.1 0.2,86.8 0.05,21.7 0.05,21.7 -0.33,21.7 -0.38,0 -1.13,0 26.73,0.13 27.86,0.13 84.33,0.39 112.56,0.53 28.23,0.13 28.23,0.13 28.23,0.13 0,0 0,0 -0.38,-22.94 -0.38,-22.94 -1.13,-68.82 -1.51,-91.76 -0.37,-22.94 -0.37,-22.94 6.65,-23.73 7.03,-0.79 21.08,-2.36 45.17,-9.96 24.1,-7.6 58.23,-21.23 90.35,-42.47 32.13,-21.23 62.24,-50.07 82.57,-79.17 20.33,-29.1 30.87,-58.46 37.14,-84.55 6.28,-26.09 8.28,-48.89 7.28,-71.44 -1,-22.55 -5.02,-44.83 -11.79,-65.54 -6.78,-20.71 -16.32,-39.85 -28.49,-57.41 -12.17,-17.57 -26.98,-33.56 -49.32,-48.63 -22.34,-15.08 -52.2,-29.23 -79.93,-39.98 -27.73,-10.75 -53.33,-18.09 -80.94,-24.77 -27.61,-6.68 -57.22,-12.71 -83.07,-18.35 -25.85,-5.64 -47.93,-10.88 -65.38,-17.04 -17.44,-6.16 -30.24,-13.24 -38.65,-21.76 -8.41,-8.52 -12.42,-18.48 -12.67,-28.31 -0.25,-9.83 3.26,-19.53 12.55,-28.71 9.29,-9.18 24.34,-17.83 47.93,-22.28 23.59,-4.46 55.72,-4.72 85.83,-1.97 30.12,2.76 58.23,8.52 86.84,18.09 28.61,9.57 57.72,22.94 74.29,30.67 16.56,7.73 20.58,9.83 22.59,10.88 2.01,1.05 2.01,1.05 2.01,1.05 0,0 0,0 14.18,-34.21 14.18,-34.21 42.54,-102.64 56.72,-136.85 14.18,-34.21 14.18,-34.21 14.06,-34.08 -0.13,0.13 -0.38,0.39 -8.41,-3.8 -8.03,-4.19 -23.84,-12.85 -46.93,-22.28 -23.09,-9.44 -53.46,-19.66 -80.94,-26.87 -27.48,-7.21 -52.08,-11.4 -68.89,-13.5 -16.82,-2.1 -25.85,-2.1 -30.37,-2.1 -4.52,0 -4.52,0 -4.52,-21.89 0,-21.89 0,-65.67 0,-87.56 0,-21.89 0,-21.89 -0.12,-21.89 -0.13,0 -0.38,0 -27.19,0.31 -26.81,0.3 -80.17,0.91 -107.12,1.21 -26.95,0.3 -27.48,0.29 -27.75,0.56z"/>
   </clipPath>
 </defs>
 <g id="Capa_x0020_1">
  <metadata id="CorelCorpID_0Corel-Layer"/>
  <path class="fil0" d="M-0 618.19c324.46,-206.06 648.91,-412.12 973.37,-618.19 0,90.33 0,180.65 0,270.98 191.6,0.82 383.2,1.64 574.8,2.47 263.02,0 472.65,-2.97 661.02,222.18 159.76,207.39 127.74,421.42 129.95,666.46 -184.98,-111.7 -369.96,-223.41 -554.93,-335.11 -177.82,2.3 -355.63,4.61 -533.45,6.91 -123.19,104.87 -246.39,209.74 -369.58,314.61 -33.46,-15.12 -66.93,-30.24 -100.4,-45.36 -260.26,-161.65 -520.52,-323.3 -780.79,-484.95z"/>
  <g style="clip-path:url(#id0)">
   <g id="_1496092753680">
    <rect class="fil1" x="1548.8" y="-0" width="919.34" height="1246.7"/>
   </g>
  </g>
  <path class="fil2" d="M-0 618.19c324.46,-206.06 648.91,-412.12 973.37,-618.19 0,90.33 0,180.65 0,270.98 191.6,0.82 383.2,1.64 574.8,2.47 263.02,0 472.65,-2.97 661.02,222.18 159.76,207.39 127.74,421.42 129.95,666.46 -184.98,-111.7 -369.96,-223.41 -554.93,-335.11 -177.82,2.3 -355.63,4.61 -533.45,6.91 -123.19,104.87 -246.39,209.74 -369.58,314.61 -33.46,-15.12 -66.93,-30.24 -100.4,-45.36 -260.26,-161.65 -520.52,-323.3 -780.79,-484.95z"/>
  <path class="fil3" d="M3097.03 2543.64c-325.6,211.79 -651.19,423.59 -976.79,635.39 0,-92.84 0,-185.68 0,-278.52 -192.27,-0.85 -384.55,-1.69 -576.82,-2.54 -263.94,0 -474.31,3.06 -663.35,-228.36 -160.32,-213.16 -128.19,-433.14 -130.41,-685 185.63,114.81 371.25,229.62 556.88,344.43 178.44,-2.37 356.88,-4.74 535.32,-7.11 123.63,-107.79 247.25,-215.58 370.88,-323.36 33.58,15.54 67.17,31.08 100.75,46.62 261.18,166.15 522.36,332.3 783.53,498.44z"/>
  <g style="clip-path:url(#id1)">
   <g id="_1496092755264">
    <rect class="fil4" x="620.2" y="1897.64" width="922.58" height="1281.39"/>
   </g>
  </g>
  <path class="fil2" d="M3097.03 2543.64c-325.6,211.79 -651.19,423.59 -976.79,635.39 0,-92.84 0,-185.68 0,-278.52 -192.27,-0.85 -384.55,-1.69 -576.82,-2.54 -263.94,0 -474.31,3.06 -663.35,-228.36 -160.32,-213.16 -128.19,-433.14 -130.41,-685 185.63,114.81 371.25,229.62 556.88,344.43 178.44,-2.37 356.88,-4.74 535.32,-7.11 123.63,-107.79 247.25,-215.58 370.88,-323.36 33.58,15.54 67.17,31.08 100.75,46.62 261.18,166.15 522.36,332.3 783.53,498.44z"/>
  <path class="fil5" d="M134.73 767.2l2832.55 0c35.41,0 64.38,28.97 64.38,64.38l0 1507c0,35.41 -28.97,64.38 -64.38,64.38l-2832.55 0c-35.41,0 -64.38,-28.97 -64.38,-64.38l0 -1507c0,-35.41 28.97,-64.38 64.38,-64.38z"/>
  <g style="clip-path:url(#id2)">
   <g id="_1496092767744">
    <rect class="fil6" x="1560.9" y="517.66" width="1590.59" height="2192.38"/>
   </g>
  </g>
  <path class="fil2" d="M134.73 767.2l2832.55 0c35.41,0 64.38,28.97 64.38,64.38l0 1507c0,35.41 -28.97,64.38 -64.38,64.38l-2832.55 0c-35.41,0 -64.38,-28.97 -64.38,-64.38l0 -1507c0,-35.41 28.97,-64.38 64.38,-64.38z"/>
  <path class="fil7" d="M257.04 1350.85c245.81,-23.55 348.58,-173.54 369.74,-395.65 613.89,-0.25 1227.79,-0.49 1841.68,-0.74 31.87,228.89 139.66,376.95 375.27,388.92 1.26,157.34 2.51,314.68 3.77,472.03 -223.9,22.73 -361.29,142.3 -377.72,397.25 -614.71,0.17 -1229.42,0.34 -1844.13,0.51 -12.81,-234.82 -144.01,-356.28 -364.87,-391.88 -1.24,-156.81 -2.49,-313.62 -3.74,-470.43z"/>
  <g style="clip-path:url(#id3)">
   <g id="_1496092772832">
    <rect class="fil8" x="1560.9" y="517.66" width="1590.59" height="2192.38"/>
   </g>
  </g>
  <path class="fil2" d="M257.04 1350.85c245.81,-23.55 348.58,-173.54 369.74,-395.65 613.89,-0.25 1227.79,-0.49 1841.68,-0.74 31.87,228.89 139.66,376.95 375.27,388.92 1.26,157.34 2.51,314.68 3.77,472.03 -223.9,22.73 -361.29,142.3 -377.72,397.25 -614.71,0.17 -1229.42,0.34 -1844.13,0.51 -12.81,-234.82 -144.01,-356.28 -364.87,-391.88 -1.24,-156.81 -2.49,-313.62 -3.74,-470.43z"/>
  <path class="fil9" d="M1489.55 1018.93c-0.27,0.28 -0.26,0.84 -0.09,22.34 0.17,21.5 0.51,63.95 0.67,85.18 0.17,21.22 0.17,21.22 0.17,20.85 0,-0.37 0,-1.12 -6.97,-0.18 -6.98,0.93 -20.93,3.55 -42.03,9.9 -21.11,6.35 -49.37,16.44 -76.73,29.89 -27.37,13.45 -53.84,30.27 -74.76,48.76 -20.92,18.49 -36.3,38.67 -49.54,61.84 -13.23,23.17 -24.33,49.32 -30.05,75.29 -5.72,25.97 -6.08,51.75 -4.83,75.85 1.25,24.1 4.11,46.52 11.45,67.82 7.33,21.3 19.14,41.48 33.98,60.16 14.84,18.68 32.73,35.87 55.08,50.63 22.36,14.76 49.19,27.09 76.37,37.18 27.18,10.09 54.73,17.93 87.28,25.22 32.55,7.29 70.11,14.01 98.19,21.67 28.08,7.66 46.68,16.25 59.74,23.91 13.06,7.66 20.57,14.39 24.5,23.54 3.93,9.15 4.3,20.74 -0.36,29.71 -4.65,8.97 -14.31,15.32 -27.72,20.18 -13.41,4.86 -30.58,8.22 -54.19,9.16 -23.61,0.93 -53.66,-0.56 -88.89,-5.42 -35.24,-4.86 -75.66,-13.08 -110.17,-25.6 -34.52,-12.52 -63.14,-29.33 -77.44,-37.74 -14.31,-8.41 -14.31,-8.41 -14.31,-8.41 0,0 0,0 -15.2,34.56 -15.2,34.56 -45.61,103.69 -60.81,138.25 -15.2,34.56 -15.2,34.56 -15.2,34.56 0,0 0,0 15.03,7.29 15.02,7.29 45.07,21.86 76.91,34 31.84,12.15 65.46,21.86 100.87,28.4 35.41,6.54 72.61,9.9 91.21,11.58 18.6,1.68 18.6,1.68 18.6,1.68 0,0 0,0 0.05,21.7 0.05,21.7 0.15,65.1 0.2,86.8 0.05,21.7 0.05,21.7 -0.33,21.7 -0.38,0 -1.13,0 26.73,0.13 27.86,0.13 84.33,0.39 112.56,0.53 28.23,0.13 28.23,0.13 28.23,0.13 0,0 0,0 -0.38,-22.94 -0.38,-22.94 -1.13,-68.82 -1.51,-91.76 -0.37,-22.94 -0.37,-22.94 6.65,-23.73 7.03,-0.79 21.08,-2.36 45.17,-9.96 24.1,-7.6 58.23,-21.23 90.35,-42.47 32.13,-21.23 62.24,-50.07 82.57,-79.17 20.33,-29.1 30.87,-58.46 37.14,-84.55 6.28,-26.09 8.28,-48.89 7.28,-71.44 -1,-22.55 -5.02,-44.83 -11.79,-65.54 -6.78,-20.71 -16.32,-39.85 -28.49,-57.41 -12.17,-17.57 -26.98,-33.56 -49.32,-48.63 -22.34,-15.08 -52.2,-29.23 -79.93,-39.98 -27.73,-10.75 -53.33,-18.09 -80.94,-24.77 -27.61,-6.68 -57.22,-12.71 -83.07,-18.35 -25.85,-5.64 -47.93,-10.88 -65.38,-17.04 -17.44,-6.16 -30.24,-13.24 -38.65,-21.76 -8.41,-8.52 -12.42,-18.48 -12.67,-28.31 -0.25,-9.83 3.26,-19.53 12.55,-28.71 9.29,-9.18 24.34,-17.83 47.93,-22.28 23.59,-4.46 55.72,-4.72 85.83,-1.97 30.12,2.76 58.23,8.52 86.84,18.09 28.61,9.57 57.72,22.94 74.29,30.67 16.56,7.73 20.58,9.83 22.59,10.88 2.01,1.05 2.01,1.05 2.01,1.05 0,0 0,0 14.18,-34.21 14.18,-34.21 42.54,-102.64 56.72,-136.85 14.18,-34.21 14.18,-34.21 14.06,-34.08 -0.13,0.13 -0.38,0.39 -8.41,-3.8 -8.03,-4.19 -23.84,-12.85 -46.93,-22.28 -23.09,-9.44 -53.46,-19.66 -80.94,-26.87 -27.48,-7.21 -52.08,-11.4 -68.89,-13.5 -16.82,-2.1 -25.85,-2.1 -30.37,-2.1 -4.52,0 -4.52,0 -4.52,-21.89 0,-21.89 0,-65.67 0,-87.56 0,-21.89 0,-21.89 -0.12,-21.89 -0.13,0 -0.38,0 -27.19,0.31 -26.81,0.3 -80.17,0.91 -107.12,1.21 -26.95,0.3 -27.48,0.29 -27.75,0.56z"/>
  <g style="clip-path:url(#id4)">
   <g id="_1496092775136">
    <rect class="fil10" x="1560.73" y="175.85" width="1137.35" height="2903.17"/>
   </g>
  </g>
  <path class="fil2" d="M1489.55 1018.93c-0.27,0.28 -0.26,0.84 -0.09,22.34 0.17,21.5 0.51,63.95 0.67,85.18 0.17,21.22 0.17,21.22 0.17,20.85 0,-0.37 0,-1.12 -6.97,-0.18 -6.98,0.93 -20.93,3.55 -42.03,9.9 -21.11,6.35 -49.37,16.44 -76.73,29.89 -27.37,13.45 -53.84,30.27 -74.76,48.76 -20.92,18.49 -36.3,38.67 -49.54,61.84 -13.23,23.17 -24.33,49.32 -30.05,75.29 -5.72,25.97 -6.08,51.75 -4.83,75.85 1.25,24.1 4.11,46.52 11.45,67.82 7.33,21.3 19.14,41.48 33.98,60.16 14.84,18.68 32.73,35.87 55.08,50.63 22.36,14.76 49.19,27.09 76.37,37.18 27.18,10.09 54.73,17.93 87.28,25.22 32.55,7.29 70.11,14.01 98.19,21.67 28.08,7.66 46.68,16.25 59.74,23.91 13.06,7.66 20.57,14.39 24.5,23.54 3.93,9.15 4.3,20.74 -0.36,29.71 -4.65,8.97 -14.31,15.32 -27.72,20.18 -13.41,4.86 -30.58,8.22 -54.19,9.16 -23.61,0.93 -53.66,-0.56 -88.89,-5.42 -35.24,-4.86 -75.66,-13.08 -110.17,-25.6 -34.52,-12.52 -63.14,-29.33 -77.44,-37.74 -14.31,-8.41 -14.31,-8.41 -14.31,-8.41 0,0 0,0 -15.2,34.56 -15.2,34.56 -45.61,103.69 -60.81,138.25 -15.2,34.56 -15.2,34.56 -15.2,34.56 0,0 0,0 15.03,7.29 15.02,7.29 45.07,21.86 76.91,34 31.84,12.15 65.46,21.86 100.87,28.4 35.41,6.54 72.61,9.9 91.21,11.58 18.6,1.68 18.6,1.68 18.6,1.68 0,0 0,0 0.05,21.7 0.05,21.7 0.15,65.1 0.2,86.8 0.05,21.7 0.05,21.7 -0.33,21.7 -0.38,0 -1.13,0 26.73,0.13 27.86,0.13 84.33,0.39 112.56,0.53 28.23,0.13 28.23,0.13 28.23,0.13 0,0 0,0 -0.38,-22.94 -0.38,-22.94 -1.13,-68.82 -1.51,-91.76 -0.37,-22.94 -0.37,-22.94 6.65,-23.73 7.03,-0.79 21.08,-2.36 45.17,-9.96 24.1,-7.6 58.23,-21.23 90.35,-42.47 32.13,-21.23 62.24,-50.07 82.57,-79.17 20.33,-29.1 30.87,-58.46 37.14,-84.55 6.28,-26.09 8.28,-48.89 7.28,-71.44 -1,-22.55 -5.02,-44.83 -11.79,-65.54 -6.78,-20.71 -16.32,-39.85 -28.49,-57.41 -12.17,-17.57 -26.98,-33.56 -49.32,-48.63 -22.34,-15.08 -52.2,-29.23 -79.93,-39.98 -27.73,-10.75 -53.33,-18.09 -80.94,-24.77 -27.61,-6.68 -57.22,-12.71 -83.07,-18.35 -25.85,-5.64 -47.93,-10.88 -65.38,-17.04 -17.44,-6.16 -30.24,-13.24 -38.65,-21.76 -8.41,-8.52 -12.42,-18.48 -12.67,-28.31 -0.25,-9.83 3.26,-19.53 12.55,-28.71 9.29,-9.18 24.34,-17.83 47.93,-22.28 23.59,-4.46 55.72,-4.72 85.83,-1.97 30.12,2.76 58.23,8.52 86.84,18.09 28.61,9.57 57.72,22.94 74.29,30.67 16.56,7.73 20.58,9.83 22.59,10.88 2.01,1.05 2.01,1.05 2.01,1.05 0,0 0,0 14.18,-34.21 14.18,-34.21 42.54,-102.64 56.72,-136.85 14.18,-34.21 14.18,-34.21 14.06,-34.08 -0.13,0.13 -0.38,0.39 -8.41,-3.8 -8.03,-4.19 -23.84,-12.85 -46.93,-22.28 -23.09,-9.44 -53.46,-19.66 -80.94,-26.87 -27.48,-7.21 -52.08,-11.4 -68.89,-13.5 -16.82,-2.1 -25.85,-2.1 -30.37,-2.1 -4.52,0 -4.52,0 -4.52,-21.89 0,-21.89 0,-65.67 0,-87.56 0,-21.89 0,-21.89 -0.12,-21.89 -0.13,0 -0.38,0 -27.19,0.31 -26.81,0.3 -80.17,0.91 -107.12,1.21 -26.95,0.3 -27.48,0.29 -27.75,0.56z"/>
  <path class="fil11" d="M3895.85 39.95c0,-10.43 2.26,-18.05 6.49,-22.56 4.51,-4.79 9.59,-7.05 15.79,-7.05l107.14 0c9.87,0 16.64,2.82 20.58,8.74 3.67,5.64 5.64,13.54 5.64,23.4l0 842.76c0,42.29 -7.05,80.92 -21.43,115.88 -14.38,34.96 -33.83,64.85 -58.36,89.66 -24.81,24.81 -53.85,43.98 -87.41,57.8 -33.55,13.82 -69.64,20.58 -108.27,20.58 -19.74,0 -39.47,-1.97 -59.49,-5.92 -19.74,-3.67 -38.63,-9.31 -56.96,-16.35 -18.05,-7.33 -34.96,-16.07 -50.75,-26.5 -15.79,-10.43 -29.04,-21.99 -40.04,-34.68 -2.82,-4.51 -5.92,-10.71 -9.02,-18.89 -3.38,-8.46 -2.26,-16.07 3.1,-23.12l50.47 -62.88c5.08,-6.77 11.28,-10.15 18.61,-10.43 7.33,-0.28 14.66,3.67 21.99,11.28 12.12,11.56 28.48,21.99 49.06,31.29 20.58,9.31 42.58,14.1 65.7,14.1 20.3,0 38.63,-3.95 54.42,-11.56 16.07,-7.61 29.33,-18.33 40.04,-31.86 10.71,-13.25 18.89,-29.32 24.53,-47.37 5.36,-18.05 8.18,-37.78 8.18,-58.65l0 -837.68zm855.17 1083.27c2.26,8.46 1.97,15.22 -0.85,20.86 -2.82,5.36 -7.9,8.18 -15.51,8.18l-106.58 0c-6.2,0 -12.12,-1.69 -17.76,-5.08 -5.92,-3.1 -9.59,-9.3 -11.28,-18.05l-30.45 -166.07 -243.89 0 -29.61 166.07c-1.69,8.74 -5.36,14.94 -10.71,18.05 -5.64,3.38 -11.28,5.08 -17.48,5.08l-106.58 0c-7.61,0 -12.97,-2.82 -16.07,-8.18 -2.82,-5.64 -3.38,-12.69 -1.13,-21.43l231.2 -1088.06c2.26,-9.3 5.64,-15.79 10.43,-19.45 4.51,-3.38 10.15,-5.36 16.92,-5.36l91.63 0c6.77,0 12.4,1.97 16.92,5.36 4.79,3.67 7.89,10.15 9.59,19.45l231.2 1088.62zm-402.91 -286.47l197.37 0 -91.63 -503.85 -6.77 -60.34 -6.48 60.34 -92.48 503.85z"/>
  <path class="fil11" d="M3700.62 2183.28c0,18.04 3.1,35.52 9.59,51.88 6.2,16.64 14.94,31.01 26.22,43.42 11.28,12.41 24.81,22.27 40.6,29.61 15.79,7.61 33.27,11.28 52.44,11.28 19.17,0 36.65,-3.66 52.16,-11.28 15.79,-7.33 29.04,-17.2 40.04,-29.61 10.71,-12.41 19.45,-26.78 25.38,-43.42 5.92,-16.64 9.02,-33.84 9.02,-52.16l0 -82.61c0,-12.69 1.69,-20.87 5.36,-25.09 3.67,-4.23 9.31,-6.2 16.92,-6.2l100.09 0c8.18,0 14.38,1.97 18.61,5.92 4.23,3.66 6.2,11.84 6.2,23.68l0 91.92c0,40.6 -7.05,77.82 -21.43,111.09 -14.38,33.27 -33.84,61.75 -58.93,85.43 -24.81,23.68 -54.14,42.01 -87.69,54.98 -33.55,12.97 -69.08,19.45 -106.86,19.45 -38.63,0 -75,-6.48 -109.12,-19.45 -34.4,-12.97 -64.57,-31.3 -90.22,-54.98 -25.94,-23.68 -46.24,-52.16 -61.47,-85.43 -14.94,-33.27 -22.56,-70.49 -22.56,-111.09l0 -635.52c0,-38.06 7.05,-73.59 21.43,-106.58 14.1,-32.99 34.12,-61.75 59.21,-86.28 25.38,-24.53 55.26,-43.7 89.66,-57.52 34.68,-13.82 72.18,-20.58 112.78,-20.58 43.98,0 82.61,7.61 116.16,22.84 33.55,14.94 61.75,35.52 84.3,61.18 22.84,25.66 40.04,54.98 51.88,87.97 11.84,33.27 17.76,67.39 17.76,102.63l0 68.8c0,12.69 -1.69,21.43 -4.79,26.5 -3.38,4.8 -9.59,7.33 -19.17,7.33l-98.4 0c-9.31,0 -15.51,-2.54 -18.61,-7.33 -3.1,-5.07 -4.51,-12.97 -4.51,-23.96l0 -66.82c0,-18.33 -2.82,-35.52 -8.74,-52.16 -5.64,-16.35 -13.82,-31.01 -24.53,-43.7 -10.71,-12.69 -23.68,-22.56 -38.91,-29.89 -14.94,-7.61 -31.86,-11.28 -50.47,-11.28 -18.89,0 -36.09,3.66 -51.88,10.71 -16.07,7.05 -29.89,16.92 -41.16,29.32 -11.56,12.41 -20.58,26.78 -26.79,43.42 -6.48,16.35 -9.59,33.84 -9.59,51.88l0 621.71zm546.99 -850.94c0,-8.74 2.26,-15.79 7.05,-21.43 4.51,-5.36 10.99,-8.18 19.17,-8.18l263.63 0c40.6,0 77.82,7.33 111.65,21.99 33.83,14.38 62.88,34.68 87.41,60.06 24.53,25.66 43.42,55.82 57.24,90.51 13.82,34.68 20.58,71.9 20.58,111.37l0 97.56c0,61.75 -13.25,113.63 -39.76,155.92 -26.22,42.58 -60.05,75 -101.5,97.56l151.41 476.5c2.26,7.61 1.69,14.66 -1.13,20.87 -3.1,6.48 -7.61,9.59 -14.1,9.59l-111.37 0c-7.05,0 -12.41,-1.41 -16.07,-4.23 -3.67,-2.54 -6.77,-8.74 -9.59,-18.05l-137.87 -449.71 -131.11 0 0 443.79c0,18.89 -8.18,28.2 -24.81,28.2l-106.01 0c-16.64,0 -24.81,-9.31 -24.81,-28.2l0 -1084.11zm155.64 112.5l0 394.17 123.5 0c21.43,0 40.6,-3.66 56.95,-10.71 16.36,-7.33 30.17,-17.2 41.17,-30.17 11,-12.97 19.45,-28.19 25.09,-45.39 5.92,-17.48 8.74,-36.37 8.74,-56.67l0 -109.96c0,-20.86 -3.1,-40.04 -9.02,-57.52 -6.2,-17.2 -14.94,-32.14 -26.5,-44.55 -11.56,-12.41 -25.38,-21.99 -42.01,-28.76 -16.35,-7.05 -34.68,-10.43 -55.26,-10.43l-122.65 0zm572.08 -112.5c0,-8.74 2.26,-15.79 7.05,-21.43 4.51,-5.36 10.99,-8.18 19.17,-8.18l447.46 0c5.92,0 11.28,1.97 15.79,6.2 4.23,3.95 6.48,10.71 6.48,20.02l0 90.51c0,9.31 -2.26,15.79 -6.48,19.74 -4.51,3.67 -9.87,5.64 -15.79,5.64l-318.04 0 0 346.8 256.01 0c6.2,0 11.84,1.69 16.92,5.36 5.36,3.66 7.9,10.15 7.9,19.45l0 91.63c0,9.31 -2.54,16.07 -7.9,19.74 -5.07,3.95 -10.71,5.92 -16.92,5.92l-256.01 0 0 368.79 318.89 0c5.92,0 11.56,1.69 16.35,5.36 5.08,3.67 7.61,9.87 7.61,18.61l0 92.48c0,9.31 -2.54,16.07 -7.61,19.74 -4.79,3.95 -10.43,5.92 -16.35,5.92l-448.31 0c-9.3,0 -16.07,-2.54 -20.02,-7.89 -4.23,-5.08 -6.2,-12.41 -6.2,-21.71l0 -1082.7zm307.89 -138.16c-6.2,10.43 -11.84,17.2 -16.92,19.73 -5.36,2.82 -11.28,4.23 -17.76,4.23l-63.72 0c-7.05,0 -12.69,-3.38 -16.92,-10.43 -3.95,-6.77 -3.95,-15.79 0.56,-26.78l62.59 -136.75c3.95,-9.31 7.89,-15.79 12.12,-18.89 3.95,-3.38 9.87,-5.08 17.76,-5.08l80.07 0c9.31,0 15.51,3.95 18.05,11.56 2.82,7.61 1.69,16.07 -3.1,25.66l-72.74 136.75zm320.01 138.16c0,-8.74 2.26,-15.79 7.05,-21.43 4.51,-5.36 10.99,-8.18 19.45,-8.18l262.22 0c40.04,0.56 77.26,7.33 111.37,20.3 34.12,12.97 63.44,31.3 88.25,55.26 24.81,23.96 43.99,53.29 57.8,87.97 13.82,34.68 20.58,73.59 20.58,117.29l0 578.57c0,44.27 -7.05,83.74 -21.15,118.7 -13.82,34.96 -33.27,64.57 -58.08,88.82 -24.81,23.96 -54.13,42.58 -88.53,55.54 -34.4,12.97 -71.62,19.45 -111.94,19.45l-260.52 0c-9.59,0 -16.07,-2.54 -20.3,-7.89 -4.23,-5.08 -6.2,-12.41 -6.2,-21.71l0 -1082.7zm155.64 970.2l122.37 0c20.3,0 38.91,-3.67 55.26,-11.28 16.64,-7.33 30.73,-17.48 42.29,-30.45 11.56,-12.97 20.3,-28.2 26.5,-45.68 5.92,-17.76 9.02,-36.66 9.02,-56.96l0 -570.39c0,-44.83 -11.56,-79.51 -34.68,-104.04 -23.12,-24.81 -54.98,-37.78 -95.02,-38.91l-125.75 0 0 857.7zm569.55 -970.2c0,-8.74 2.26,-15.79 7.05,-21.43 4.51,-5.36 10.99,-8.18 19.17,-8.18l104.6 0c8.46,0 14.66,2.82 18.61,8.18 4.23,5.64 6.2,12.69 6.2,21.43l0 1082.7c0,9.31 -1.97,16.64 -5.64,21.71 -3.95,5.36 -10.15,7.89 -19.17,7.89l-104.6 0c-9.3,0 -16.07,-2.54 -20.02,-7.89 -4.23,-5.08 -6.2,-12.41 -6.2,-21.71l0 -1082.7zm257.71 -3.38c0,-8.74 2.26,-15.23 7.05,-19.74 4.79,-4.23 9.87,-6.48 15.22,-6.48l487.78 0c5.92,0 11.28,1.97 15.79,5.64 4.23,3.95 6.48,10.43 6.48,19.74l0 90.51c0,9.31 -2.26,16.07 -6.48,20.02 -4.51,4.23 -9.87,6.2 -15.79,6.2l-166.07 0 0 973.3c0,8.74 -2.26,15.51 -6.48,20.02 -4.51,4.23 -9.31,6.48 -14.94,6.48l-111.09 0c-6.2,0 -11.56,-2.26 -16.07,-6.48 -4.79,-4.51 -7.05,-11.28 -7.05,-20.02l0 -973.3 -166.07 0c-5.36,0 -10.43,-1.97 -15.22,-6.2 -4.8,-3.95 -7.05,-10.71 -7.05,-20.02l0 -89.66zm609.86 226.13c0,-40.6 7.61,-77.82 22.84,-111.09 14.94,-33.27 35.53,-61.75 61.47,-85.43 25.94,-23.68 56.11,-42.01 90.51,-54.98 34.4,-12.97 70.77,-19.45 109.4,-19.45 38.06,0 74.15,6.48 108.55,19.45 34.4,12.97 64.85,31.3 91.07,54.98 25.94,23.68 46.8,52.16 61.75,85.43 15.23,33.27 22.84,70.49 22.84,111.09l0 636.37c0,40.6 -7.61,77.82 -23.12,111.09 -15.51,33.27 -36.09,61.75 -62.03,85.15 -25.94,23.4 -56.11,41.45 -90.51,54.42 -34.4,12.97 -70.77,19.45 -109.4,19.45 -38.63,0 -75,-6.48 -109.12,-19.74 -34.12,-13.25 -64,-31.86 -89.94,-55.54 -25.94,-23.68 -46.52,-51.88 -61.47,-85.15 -15.22,-32.99 -22.84,-69.64 -22.84,-109.68l0 -636.37zm155.64 629.88c0,18.05 3.1,35.53 9.59,51.88 6.2,16.64 14.94,31.01 25.94,42.86 10.99,12.12 24.53,21.99 40.04,29.04 15.79,7.05 32.99,10.71 51.88,10.71 19.17,0 36.94,-3.38 52.73,-10.43 16.07,-6.77 29.61,-16.07 40.88,-27.91 11.56,-11.84 20.3,-25.66 26.5,-41.73 6.48,-16.07 9.59,-32.99 9.59,-51.31l0 -624.81c0,-18.05 -3.1,-35.52 -9.59,-52.44 -6.2,-16.64 -14.94,-31.3 -26.5,-43.7 -11.28,-12.41 -24.81,-22.27 -40.32,-29.61 -15.79,-7.61 -32.99,-11.28 -51.6,-11.28 -19.45,0 -36.94,3.66 -52.72,11.28 -15.51,7.33 -29.04,17.2 -40.32,29.61 -11.56,12.41 -20.3,27.07 -26.5,43.7 -6.48,16.92 -9.59,34.4 -9.59,52.44l0 621.71zm540.51 -47.37c0,-10.99 1.41,-19.17 4.51,-24.81 3.1,-5.36 9.59,-8.18 20.02,-8.18l96.43 0c9.3,0 15.79,2.26 19.17,7.05 3.67,4.51 5.36,12.12 5.36,22.56l0 38.63c0,27.63 4.23,50.47 12.97,69.36 8.46,18.61 19.45,33.55 32.42,45.11 12.97,11.56 27.35,19.74 42.86,24.81 15.51,4.79 30.17,7.33 44.27,7.33 18.33,0 35.81,-3.38 52.44,-9.87 16.63,-6.77 31.01,-16.07 43.7,-28.19 12.41,-12.13 22.27,-26.5 29.61,-42.86 7.05,-16.64 10.71,-34.68 10.71,-54.7 0,-26.22 -3.38,-49.34 -9.87,-69.36 -6.77,-19.74 -16.92,-39.19 -31.01,-57.8 -14.1,-18.61 -32.42,-38.06 -54.98,-57.8 -22.84,-19.74 -49.91,-42.86 -82.05,-69.36 -36.37,-29.89 -69.08,-56.96 -98.4,-81.77 -29.32,-24.81 -54.14,-50.47 -74.44,-76.97 -20.3,-26.5 -36.09,-55.54 -47.09,-87.12 -10.99,-31.58 -16.63,-69.64 -16.63,-113.63 0,-37.5 4.79,-70.49 14.1,-99.25 9.31,-28.48 21.71,-53.57 37.22,-74.72 15.51,-21.15 32.71,-38.91 52.16,-53.29 19.17,-14.38 39.19,-25.66 59.49,-34.4 20.58,-8.46 40.32,-14.66 59.77,-18.33 19.17,-3.95 36.37,-5.92 51.32,-5.92 40.32,0 77.25,7.05 110.81,21.15 33.55,13.82 62.31,33.27 86,58.36 23.68,25.1 42.01,54.7 55.26,89.1 13.25,34.4 20.02,71.61 20.02,111.65l0 48.78c0,10.43 -1.97,18.05 -5.92,22.56 -3.95,4.79 -11.28,7.05 -22.27,7.05l-95.02 0c-9.31,0 -15.51,-2.54 -18.33,-7.33 -2.82,-5.08 -4.23,-12.41 -4.23,-22.27l0 -47.37c0,-18.05 -2.54,-35.52 -8.18,-52.16 -5.64,-16.64 -13.53,-31.58 -23.97,-44.27 -10.71,-12.97 -23.68,-23.4 -39.47,-31.3 -15.79,-7.89 -34.12,-11.84 -54.42,-11.84 -13.53,0 -27.63,2.26 -42.86,7.05 -15.23,4.51 -29.33,12.69 -42.29,24.25 -13.25,11.56 -23.96,26.78 -32.42,45.96 -8.74,18.89 -12.97,42.86 -12.97,71.33 0,25.38 4.51,47.65 13.25,67.39 8.74,19.45 20.3,37.22 34.4,53.57 14.1,16.35 29.89,31.3 47.37,45.4 17.48,14.1 34.96,28.19 52.44,42.58 40.04,32.42 76.41,62.31 109.68,89.66 32.99,27.07 61.75,55.83 85.72,85.72 23.96,30.17 42.86,63.44 56.39,100.37 13.53,36.94 20.3,80.92 20.3,131.95 0,35.81 -7.05,69.92 -21.15,102.63 -14.1,32.42 -33.55,60.9 -58.65,85.71 -25.09,24.81 -55.26,44.55 -90.22,59.49 -34.96,14.94 -73.59,22.27 -115.32,22.27 -41.45,0 -79.23,-7.05 -113.35,-21.15 -34.12,-13.82 -63.44,-33.27 -87.69,-58.08 -24.25,-24.53 -43.14,-54.14 -56.67,-88.53 -13.54,-34.4 -20.3,-72.18 -20.3,-113.34l0 -42.86z"/>
  <g id="_1496092784208">
   <path class="fil12" d="M3579.88 2738.02c0,-13.25 2.75,-25.76 8.24,-37.42 5.49,-11.66 13.05,-21.84 22.54,-30.42 9.5,-8.59 20.71,-15.37 33.76,-20.35 13.05,-4.98 27.12,-7.42 42.34,-7.42 15.45,0 29.52,2.54 41.99,7.74 12.59,5.09 23.23,12.08 32.16,20.88 8.81,8.69 15.68,18.97 20.48,30.63 4.81,11.66 7.21,23.96 7.21,36.78l0 21.73c0,4.35 -0.57,7.42 -1.72,9.22 -1.03,1.7 -3.32,2.65 -6.64,2.65l-17.96 0c-3.44,0 -5.72,-0.95 -7.21,-2.65 -1.48,-1.8 -2.17,-4.77 -2.17,-8.9l0 -21.41c0,-8.9 -1.6,-17.27 -4.92,-25.12 -3.2,-7.84 -7.78,-14.84 -13.62,-20.77 -5.84,-6.04 -12.82,-10.81 -20.94,-14.31 -8.13,-3.5 -16.94,-5.3 -26.66,-5.3 -9.84,0 -19,1.7 -27.35,5.09 -8.24,3.5 -15.56,8.06 -21.86,13.99 -6.29,5.93 -11.21,12.82 -14.65,20.77 -3.55,7.95 -5.26,16.43 -5.26,25.33l0 248.03c0,8.9 1.72,17.28 5.26,25.12 3.43,7.84 8.24,14.73 14.42,20.67 6.18,5.93 13.5,10.6 21.86,14.1 8.47,3.5 17.62,5.3 27.46,5.3 9.61,0 18.65,-1.8 26.89,-5.3 8.35,-3.5 15.45,-8.16 21.51,-14.1 6.06,-5.94 10.75,-12.83 14.19,-20.67 3.32,-7.84 5.03,-16.22 5.03,-25.12l0 -25.12c0,-4.77 0.91,-7.95 2.75,-9.33 1.71,-1.48 4,-2.22 6.64,-2.22l17.96 0c2.63,0 4.81,0.74 6.53,2.22 1.72,1.38 2.52,4.45 2.52,9.01l0 26.71c0,13.78 -2.63,26.61 -8.01,38.26 -5.38,11.76 -12.82,21.84 -22.2,30.32 -9.5,8.59 -20.48,15.16 -33.18,19.93 -12.59,4.77 -26.09,7.21 -40.51,7.21 -14.76,0 -28.61,-2.33 -41.54,-7.1 -12.82,-4.77 -24.15,-11.45 -33.87,-19.93 -9.72,-8.48 -17.51,-18.55 -23.12,-30.21 -5.61,-11.76 -8.35,-24.48 -8.35,-38.37l0 -250.14zm267.08 105.14c0,-15.37 3.09,-28.62 9.15,-39.96 6.07,-11.23 13.62,-20.56 22.89,-27.88 9.16,-7.42 19.11,-12.83 29.98,-16.32 10.87,-3.5 21.17,-5.3 31.01,-5.3 6.52,0 12.82,0.11 18.99,0.32 6.07,0.21 11.44,0.64 15.91,1.27 6.41,1.06 9.73,3.92 9.73,8.69l0 13.14c0,3.5 -1.37,5.83 -4.01,7.1 -2.74,1.27 -5.6,1.69 -8.81,1.27 -4.46,-0.42 -8.7,-0.64 -12.82,-0.64 -4.23,0 -8.47,0 -12.93,0 -9.84,0 -18.65,1.7 -26.32,4.98 -7.78,3.29 -14.31,7.84 -19.68,13.46 -5.26,5.72 -9.49,12.3 -12.36,19.61 -2.86,7.31 -4.35,15.05 -4.35,23.11l0 221.1c0,3.61 -1.14,6.15 -3.55,7.85 -2.4,1.59 -4.46,2.44 -6.18,2.44l-18.88 0c-1.83,0 -3.55,-0.74 -5.26,-2.33 -1.72,-1.59 -2.52,-3.82 -2.52,-6.68l0 -225.24zm199.57 158.99c0,6.99 1.48,13.67 4.35,19.82 2.86,6.15 6.86,11.56 11.9,16.22 5.04,4.66 10.87,8.37 17.62,11.03 6.64,2.65 13.96,4.03 21.74,4.03 7.78,0 14.99,-1.38 21.63,-4.24 6.52,-2.76 12.13,-6.47 16.82,-11.13 4.69,-4.66 8.35,-10.07 11.1,-16.33 2.63,-6.15 4,-12.82 4,-19.82l0 -13.36c0,-3.39 0.92,-5.51 2.86,-6.36 1.94,-0.95 3.66,-1.48 5.26,-1.48l18.77 0c1.6,0 3.21,0.42 4.92,1.27 1.72,0.85 2.52,3.18 2.52,7.21l0 12.72c0,11.13 -2.17,21.73 -6.52,31.59 -4.35,9.96 -10.53,18.65 -18.31,25.97 -7.78,7.42 -17.16,13.25 -28.03,17.49 -10.87,4.24 -22.66,6.36 -35.36,6.36 -12.82,0 -24.71,-2.12 -35.82,-6.36 -10.98,-4.24 -20.71,-10.07 -28.95,-17.38 -8.35,-7.42 -14.88,-16 -19.68,-25.86 -4.81,-9.86 -7.21,-20.35 -7.21,-31.48l0 -167.26c0,-11.13 2.4,-21.62 7.21,-31.48 4.81,-9.86 11.33,-18.44 19.57,-25.86 8.24,-7.31 17.96,-13.14 28.95,-17.38 11.1,-4.24 23,-6.36 35.7,-6.36 12.7,0 24.49,2.12 35.36,6.36 10.87,4.24 20.25,10.07 28.15,17.49 7.89,7.31 14.08,16 18.42,25.86 4.35,9.86 6.52,20.35 6.52,31.59l0 80.03c0,2.54 -0.8,4.45 -2.4,5.83 -1.48,1.38 -3.32,2.01 -5.27,2.01l-135.83 0 0 79.28zm0 -105.36l109.16 0 0 -61.79c0,-6.99 -1.37,-13.67 -4,-19.93 -2.74,-6.25 -6.41,-11.66 -11.1,-16.32 -4.69,-4.66 -10.3,-8.37 -16.82,-11.13 -6.64,-2.65 -13.85,-4.03 -21.63,-4.03 -7.78,0 -15.1,1.38 -21.74,4.03 -6.75,2.76 -12.59,6.46 -17.62,11.13 -5.04,4.66 -9.04,10.07 -11.9,16.32 -2.86,6.25 -4.35,12.93 -4.35,19.93l0 61.79zm78.5 -176.9c-1.71,3.29 -3.66,5.41 -5.72,6.36 -1.94,0.95 -3.89,1.38 -5.6,1.38l-12.13 0c-3.09,0 -5.26,-1.27 -6.52,-3.92 -1.26,-2.54 -0.92,-5.62 0.8,-9.12l26.89 -52.68c1.26,-3.07 2.74,-5.09 4.12,-6.04 1.48,-0.95 3.43,-1.38 5.95,-1.38l15.33 0c2.97,0 4.92,1.27 5.95,3.92 0.91,2.54 0.57,5.62 -1.26,9.12l-27.81 52.36zm303.47 348.19c0,2.76 -0.69,4.98 -1.95,6.68 -1.37,1.8 -3.66,2.65 -6.75,2.65l-11.67 0c-5.61,0 -8.81,-3.29 -9.73,-9.86l-0.92 -18.55c-7.67,10.28 -17.28,18.65 -28.95,24.8 -11.67,6.25 -24.95,9.33 -40.05,9.33 -12.01,0 -23.23,-2.12 -33.53,-6.36 -10.3,-4.24 -19.22,-10.07 -26.55,-17.6 -7.44,-7.42 -13.28,-16.22 -17.51,-26.28 -4.23,-9.96 -6.41,-20.77 -6.41,-32.43l0 -165.04c0,-10.6 2.06,-20.77 6.06,-30.63 4,-9.86 9.73,-18.55 16.94,-26.08 7.33,-7.53 16.02,-13.67 26.32,-18.23 10.18,-4.56 21.4,-6.78 33.76,-6.78 12.82,0 24.6,2.33 35.59,6.89 10.99,4.66 20.71,11.13 28.95,19.29l0 -122.74c0,-2.54 0.69,-4.66 1.94,-6.36 1.37,-1.8 3.66,-2.65 6.75,-2.65l19 0c2.86,0 5.03,0.85 6.52,2.65 1.49,1.69 2.18,3.82 2.18,6.36l0 410.94zm-36.39 -234.67c-0.46,-6.89 -2.17,-13.25 -5.04,-19.29 -2.98,-6.04 -6.87,-11.23 -11.79,-15.69 -4.92,-4.56 -10.75,-8.06 -17.39,-10.81 -6.64,-2.65 -13.73,-4.03 -21.4,-4.03 -7.89,0 -15.22,1.38 -21.86,4.24 -6.75,2.76 -12.7,6.46 -17.73,11.13 -5.04,4.66 -9.04,10.18 -11.79,16.54 -2.86,6.36 -4.23,13.04 -4.23,20.14l0 165.88c0,7.1 1.37,13.78 4.23,19.93 2.75,6.25 6.75,11.77 11.79,16.43 5.04,4.66 10.98,8.37 17.73,11.13 6.64,2.86 13.96,4.24 21.86,4.24 7.9,0 15.22,-1.38 21.86,-4.24 6.75,-2.76 12.7,-6.47 17.73,-11.13 5.04,-4.66 9.04,-10.18 11.79,-16.43 2.86,-6.15 4.23,-12.82 4.23,-19.93l0 -168.11zm109.05 -66.25c0,-1.59 0.69,-3.39 2.17,-5.09 1.49,-1.8 3.78,-2.65 6.87,-2.65l17.97 0c3.2,0 5.49,0.85 7.09,2.65 1.49,1.69 2.29,3.5 2.29,5.09l0 301.23c0,2.65 -0.8,4.88 -2.29,6.57 -1.6,1.59 -3.89,2.44 -7.09,2.44l-17.97 0c-3.09,0 -5.38,-0.85 -6.87,-2.44 -1.49,-1.7 -2.17,-3.92 -2.17,-6.57l0 -301.23zm-5.49 -73.67c0,-2.54 0.8,-4.56 2.29,-6.15 1.37,-1.59 3.89,-2.33 7.55,-2.33l26.09 0c6.3,0 9.38,3.08 9.38,9.12l0 21.2c0,3.18 -0.92,5.3 -2.63,6.57 -1.83,1.27 -4.12,1.91 -6.75,1.91l-25.52 0c-6.87,0 -10.41,-2.86 -10.41,-8.48l0 -21.84zm160.43 65.93l49.32 0c1.48,0 3.09,0.64 4.69,2.02 1.48,1.38 2.29,3.39 2.29,6.04l0 13.78c0,2.23 -0.69,4.24 -2.06,6.04 -1.26,1.8 -3.2,2.65 -5.61,2.65l-48.63 0 0 226.19c0,9.33 2.52,16.75 7.55,22.36 5.04,5.62 12.7,8.37 23.23,8.37l12.7 0c3.78,0 6.07,0.95 6.87,2.97 0.8,1.91 1.14,3.5 1.14,4.77l0 14.73c0,1.7 -0.57,3.39 -1.83,5.3 -1.26,1.8 -4.35,2.76 -9.16,2.76l-16.36 0c-19.68,0 -34.67,-4.98 -44.97,-14.94 -10.41,-9.86 -15.56,-25.12 -15.56,-45.58l0 -226.94 -29.18 0c-1.37,0 -3.09,-0.74 -5.15,-2.22 -2.17,-1.38 -3.2,-3.6 -3.2,-6.47l0 -13.46c0,-2.86 1.03,-4.98 2.97,-6.36 2.06,-1.38 3.78,-2.02 5.38,-2.02l29.18 0 0 -52.15c0,-5.83 2.74,-9.01 8.35,-9.65l18.65 -4.98c2.52,-0.21 4.69,0.53 6.52,2.22 1.95,1.59 2.86,3.92 2.86,6.78l0 57.77zm99.67 75.36c0,-11.13 2.4,-21.62 7.21,-31.48 4.81,-9.86 11.33,-18.44 19.57,-25.86 8.24,-7.31 17.85,-13.14 28.95,-17.38 10.98,-4.24 22.89,-6.36 35.59,-6.36 12.7,0 24.72,2.12 35.93,6.25 11.33,4.13 21.06,9.86 29.29,17.17 8.24,7.42 14.76,16 19.57,25.86 4.81,9.86 7.21,20.46 7.21,31.8l0 167.26c0,11.34 -2.4,21.94 -7.21,31.8 -4.8,9.86 -11.33,18.44 -19.57,25.86 -8.24,7.31 -17.96,13.04 -29.29,17.17 -11.21,4.13 -23.23,6.25 -35.93,6.25 -12.7,0 -24.6,-2.12 -35.59,-6.25 -11.1,-4.13 -20.71,-9.86 -28.95,-17.17 -8.24,-7.42 -14.76,-16 -19.57,-25.86 -4.81,-9.86 -7.21,-20.46 -7.21,-31.8l0 -167.26zm36.39 166.73c0,7.1 1.49,13.78 4.35,19.93 2.86,6.25 6.87,11.77 11.9,16.43 4.92,4.66 10.76,8.37 17.51,11.13 6.64,2.86 13.85,4.24 21.74,4.24 7.79,0 14.99,-1.38 21.63,-4.24 6.75,-2.76 12.59,-6.47 17.51,-11.13 5.03,-4.66 8.93,-10.18 11.79,-16.43 2.74,-6.15 4.12,-12.82 4.12,-19.93l0 -165.88c0,-7.1 -1.37,-13.78 -4.12,-20.14 -2.86,-6.36 -6.75,-11.87 -11.79,-16.54 -4.92,-4.66 -10.76,-8.37 -17.51,-11.13 -6.64,-2.86 -13.84,-4.24 -21.63,-4.24 -7.89,0 -15.1,1.38 -21.74,4.24 -6.75,2.76 -12.59,6.46 -17.51,11.13 -5.04,4.66 -9.04,10.18 -11.9,16.43 -2.86,6.15 -4.35,12.83 -4.35,19.93l0 166.2zm194.08 -9.12c0,-6.04 3.32,-9.01 10.07,-9.01l16.82 0c2.74,0 4.81,0.85 6.07,2.44 1.37,1.7 2.06,3.82 2.06,6.57l0 10.49c0,7.31 1.37,13.99 4.12,20.03 2.86,6.15 6.75,11.45 11.79,15.9 4.92,4.45 10.87,7.95 17.85,10.49 6.87,2.65 14.42,3.92 22.66,3.92 7.55,0 14.76,-1.38 21.4,-4.24 6.75,-2.76 12.59,-6.57 17.51,-11.34 5.04,-4.77 8.92,-10.28 11.79,-16.64 2.75,-6.25 4.12,-13.04 4.12,-20.35 0,-6.99 -1.71,-13.67 -5.04,-19.71 -3.32,-6.15 -8.35,-12.3 -14.99,-18.55 -6.75,-6.25 -14.99,-12.72 -24.83,-19.4 -9.73,-6.78 -21.05,-14.31 -33.75,-22.58 -8.24,-5.19 -16.25,-10.49 -24.03,-16 -7.89,-5.51 -14.76,-11.66 -20.83,-18.34 -5.95,-6.78 -10.87,-14.31 -14.53,-22.79 -3.66,-8.37 -5.49,-17.91 -5.49,-28.73 0,-11.23 2.17,-21.73 6.52,-31.59 4.35,-9.86 10.41,-18.44 18.08,-25.76 7.67,-7.42 16.82,-13.14 27.46,-17.28 10.64,-4.13 22.31,-6.25 35.01,-6.25 13.16,0 25.17,2.01 36.16,6.15 10.87,4.13 20.37,9.86 28.26,17.17 7.9,7.21 14.08,15.79 18.42,25.65 4.35,9.86 6.52,20.46 6.52,31.8l0 11.24c0,4.98 -2.97,7.42 -9.04,7.42l-16.48 0c-5.84,0 -8.81,-2.65 -8.81,-8.06l0 -10.92c0,-7 -1.37,-13.67 -4.12,-20.04 -2.86,-6.25 -6.64,-11.66 -11.44,-16.22 -4.69,-4.56 -10.41,-8.16 -16.94,-10.92 -6.64,-2.65 -13.62,-4.03 -21.17,-4.03 -7.78,0 -14.88,1.38 -21.17,4.03 -6.41,2.76 -11.79,6.36 -16.36,11.02 -4.58,4.66 -8.12,10.18 -10.64,16.54 -2.63,6.36 -3.89,13.04 -3.89,20.03 0,7.32 1.03,13.46 2.97,18.66 2.06,5.19 5.26,10.07 9.84,14.63 4.58,4.56 10.53,9.22 17.85,13.99 7.33,4.77 16.37,10.39 27.12,16.85 9.96,5.94 20.03,12.3 30.1,18.97 10.18,6.57 19.34,13.99 27.58,22.05 8.24,8.06 14.99,17.17 20.14,27.03 5.27,9.96 7.89,21.2 7.89,33.6 0,11.45 -2.17,22.15 -6.63,32.22 -4.46,10.07 -10.64,18.87 -18.65,26.28 -7.89,7.42 -17.39,13.36 -28.38,17.7 -11.1,4.35 -23.23,6.57 -36.62,6.57 -15.44,0 -28.95,-2.12 -40.51,-6.47 -11.56,-4.35 -21.29,-10.17 -28.95,-17.38 -7.67,-7.31 -13.39,-15.9 -17.17,-25.75 -3.78,-9.86 -5.72,-20.25 -5.72,-31.16l0 -9.96zm379.8 -333.99c0,-2.97 0.8,-5.41 2.52,-7.31 1.72,-2.02 4,-2.97 6.87,-2.97l97.38 0c15.79,0 30.1,2.55 43.02,7.74 12.82,5.19 23.8,12.3 32.96,21.31 9.04,9.01 16.13,19.72 21.17,32.01 5.04,12.3 7.55,25.75 7.55,40.17l0 37.95c0,23 -5.61,42.72 -16.71,59.36 -11.21,16.54 -26.55,28.51 -46,36.04l66.83 183.79c0.91,2.97 0.46,5.51 -1.26,7.63 -1.72,2.22 -3.78,3.29 -6.3,3.29l-19.68 0c-2.29,0 -4.12,-0.42 -5.72,-1.38 -1.49,-0.95 -2.86,-2.86 -4,-5.72l-64.43 -180.19c-1.71,0.21 -3.43,0.32 -5.15,0.32 -1.71,0 -3.43,0 -5.15,0l-66.14 0 0 177.33c0,2.97 -0.69,5.3 -2.17,7 -1.49,1.8 -3.78,2.65 -6.98,2.65l-19.11 0c-3.2,0 -5.6,-0.85 -7.09,-2.65 -1.6,-1.7 -2.4,-4.03 -2.4,-7l0 -409.35zm37.76 21.52l0 179.98 67.17 0c11.33,0 21.28,-1.8 29.87,-5.3 8.58,-3.5 15.79,-8.48 21.51,-14.73 5.83,-6.36 10.18,-13.78 13.05,-22.36 2.86,-8.59 4.35,-17.91 4.35,-27.88l0 -40.38c0,-10.18 -1.6,-19.5 -4.69,-27.98 -3.09,-8.48 -7.67,-15.8 -13.5,-21.94 -5.95,-6.04 -13.16,-10.81 -21.74,-14.31 -8.58,-3.39 -18.31,-5.09 -29.18,-5.09l-66.83 0zm232.53 114.79c-1.49,-1.8 -2.17,-4.13 -1.83,-6.89 0.34,-2.86 2.06,-5.3 5.27,-7.32 4.69,-3.29 9.61,-6.57 14.88,-9.86 5.27,-3.29 11.21,-6.15 17.85,-8.69 6.64,-2.44 13.96,-4.45 22.2,-5.94 8.12,-1.59 17.62,-2.33 28.38,-2.33 14.88,0 27.58,2.22 38.34,6.57 10.76,4.35 19.57,10.39 26.43,18.13 6.86,7.74 11.9,17.17 15.11,28.3 3.32,11.02 4.92,23.21 4.92,36.46l0 224.6c0,3.08 -0.8,5.51 -2.52,7.21 -1.71,1.59 -3.32,2.44 -4.92,2.44l-12.47 0c-2.4,0 -4.58,-0.85 -6.41,-2.44 -1.71,-1.7 -2.97,-4.66 -3.66,-9.01l-0.69 -40.39c-1.37,7.63 -4,14.95 -7.9,22.05 -3.89,6.99 -9.04,13.14 -15.22,18.44 -6.3,5.3 -13.5,9.43 -21.74,12.51 -8.12,3.07 -17.16,4.56 -27,4.56 -11.21,0 -22.09,-1.8 -32.61,-5.41 -10.53,-3.6 -19.8,-9.12 -28.04,-16.64 -8.12,-7.42 -14.65,-16.85 -19.57,-28.51 -4.92,-11.55 -7.44,-25.33 -7.44,-41.44l0 -13.36c0,-14.73 2.86,-27.56 8.7,-38.79 5.84,-11.13 13.73,-20.56 23.57,-28.19 9.84,-7.63 21.17,-13.36 34.1,-17.17 12.82,-3.82 26.21,-5.72 40.05,-5.72l47.38 0 0 -45.26c0,-7.1 -0.69,-14.2 -2.06,-21.3 -1.26,-7 -3.89,-13.36 -7.9,-18.97 -3.89,-5.62 -9.27,-10.17 -16.25,-13.57 -6.98,-3.5 -15.91,-5.19 -26.89,-5.19 -7.67,0 -14.42,0.64 -20.14,1.91 -5.84,1.17 -11.1,2.76 -15.91,4.77 -4.69,1.91 -9.04,4.24 -13.05,6.99 -4,2.65 -8.01,5.41 -11.79,8.06 -2.17,1.7 -4.58,2.55 -6.98,2.65 -2.52,0.11 -4.69,-0.95 -6.41,-3.29l-7.78 -9.96zm90.4 121.15c-9.38,0 -18.54,1.27 -27.46,3.92 -8.81,2.54 -16.71,6.46 -23.46,11.66 -6.87,5.09 -12.36,11.55 -16.36,19.18 -4,7.74 -6.07,16.64 -6.07,26.82l0 15.47c0,8.9 1.49,17.07 4.35,24.38 2.97,7.42 6.98,13.67 12.13,18.97 5.15,5.3 11.33,9.43 18.31,12.4 7.1,3.07 14.76,4.56 23.12,4.56 6.75,0 13.62,-1.59 20.71,-4.77 6.98,-3.29 13.5,-8.37 19.45,-15.47 5.95,-7 10.76,-16.22 14.42,-27.45 3.78,-11.34 5.61,-24.91 5.61,-40.91l0 -48.76 -44.74 0zm18.88 -206.16c-1.71,3.29 -3.66,5.41 -5.72,6.36 -1.95,0.95 -3.89,1.38 -5.61,1.38l-12.13 0c-3.09,0 -5.27,-1.27 -6.52,-3.92 -1.26,-2.55 -0.92,-5.62 0.8,-9.12l26.89 -52.68c1.26,-3.07 2.74,-5.09 4.12,-6.04 1.49,-0.95 3.43,-1.38 5.95,-1.38l15.33 0c2.98,0 4.92,1.27 5.95,3.92 0.92,2.55 0.57,5.62 -1.26,9.12l-27.81 52.36zm131.02 58.93c0,-2.76 0.69,-4.98 2.06,-6.68 1.26,-1.8 3.55,-2.65 6.64,-2.65l12.47 0c5.61,0 8.81,3.29 9.73,9.96l0.69 16.11c7.78,-9.54 17.51,-17.17 29.07,-23 11.56,-5.83 24.6,-8.69 39.14,-8.69 11.56,0 22.43,2.12 32.72,6.36 10.3,4.24 19.11,10.07 26.55,17.6 7.44,7.42 13.39,16.11 17.74,25.97 4.35,9.75 6.52,20.35 6.52,31.48l0 166.31c0,10.39 -1.94,20.35 -5.84,30.1 -3.89,9.75 -9.38,18.44 -16.59,26.18 -7.1,7.63 -15.79,13.78 -26.2,18.44 -10.3,4.66 -21.86,7 -34.56,7 -12.7,0 -24.49,-2.33 -35.36,-6.89 -10.87,-4.66 -20.37,-11.02 -28.38,-18.97l0 114.15c0,2.76 -0.57,4.88 -1.83,6.57 -1.26,1.59 -3.43,2.44 -6.64,2.44l-19.11 0c-2.97,0 -5.15,-0.85 -6.64,-2.44 -1.49,-1.7 -2.17,-3.92 -2.17,-6.57l0 -402.78zm36.39 235.1c0.23,6.89 1.83,13.25 4.69,19.18 2.86,5.83 6.86,11.13 11.79,15.69 5.04,4.56 10.87,8.16 17.39,10.71 6.64,2.65 13.62,3.92 21.28,3.92 7.78,0 14.99,-1.38 21.86,-4.24 6.75,-2.76 12.7,-6.47 17.62,-11.13 5.04,-4.66 8.92,-10.18 11.79,-16.54 2.74,-6.36 4.12,-13.04 4.12,-20.14l0 -165.88c0,-7.1 -1.37,-13.78 -4.12,-19.93 -2.86,-6.25 -6.75,-11.76 -11.79,-16.43 -4.92,-4.66 -10.87,-8.37 -17.62,-11.13 -6.87,-2.86 -14.08,-4.24 -21.86,-4.24 -7.9,0 -15.1,1.38 -21.74,4.24 -6.75,2.76 -12.47,6.46 -17.39,11.13 -4.92,4.66 -8.81,10.18 -11.67,16.43 -2.86,6.15 -4.35,12.83 -4.35,19.93l0 168.43zm211.7 -236.58c0,-1.59 0.69,-3.39 2.17,-5.09 1.49,-1.8 3.78,-2.65 6.87,-2.65l17.97 0c3.2,0 5.49,0.85 7.09,2.65 1.49,1.69 2.29,3.5 2.29,5.09l0 301.23c0,2.65 -0.8,4.88 -2.29,6.57 -1.6,1.59 -3.89,2.44 -7.09,2.44l-17.97 0c-3.09,0 -5.38,-0.85 -6.87,-2.44 -1.49,-1.7 -2.17,-3.92 -2.17,-6.57l0 -301.23zm-5.49 -73.67c0,-2.54 0.8,-4.56 2.29,-6.15 1.37,-1.59 3.89,-2.33 7.55,-2.33l26.09 0c6.3,0 9.38,3.08 9.38,9.12l0 21.2c0,3.18 -0.92,5.3 -2.63,6.57 -1.83,1.27 -4.12,1.91 -6.75,1.91l-25.52 0c-6.87,0 -10.41,-2.86 -10.41,-8.48l0 -21.84zm290.89 374.58c0,2.76 -0.69,4.98 -1.95,6.68 -1.37,1.8 -3.66,2.65 -6.75,2.65l-11.67 0c-5.61,0 -8.81,-3.29 -9.73,-9.86l-0.92 -18.55c-7.67,10.28 -17.28,18.65 -28.95,24.8 -11.67,6.25 -24.95,9.33 -40.05,9.33 -12.01,0 -23.23,-2.12 -33.53,-6.36 -10.3,-4.24 -19.22,-10.07 -26.55,-17.6 -7.44,-7.42 -13.28,-16.22 -17.51,-26.28 -4.23,-9.96 -6.41,-20.77 -6.41,-32.43l0 -165.04c0,-10.6 2.06,-20.77 6.06,-30.63 4,-9.86 9.73,-18.55 16.93,-26.08 7.33,-7.53 16.02,-13.67 26.32,-18.23 10.18,-4.56 21.4,-6.78 33.76,-6.78 12.82,0 24.6,2.33 35.59,6.89 10.99,4.66 20.71,11.13 28.95,19.29l0 -122.74c0,-2.54 0.69,-4.66 1.94,-6.36 1.37,-1.8 3.66,-2.65 6.75,-2.65l19 0c2.86,0 5.03,0.85 6.52,2.65 1.49,1.69 2.18,3.82 2.18,6.36l0 410.94zm-36.39 -234.67c-0.46,-6.89 -2.17,-13.25 -5.04,-19.29 -2.98,-6.04 -6.87,-11.23 -11.79,-15.69 -4.92,-4.56 -10.75,-8.06 -17.39,-10.81 -6.63,-2.65 -13.73,-4.03 -21.4,-4.03 -7.9,0 -15.22,1.38 -21.86,4.24 -6.75,2.76 -12.7,6.46 -17.73,11.13 -5.04,4.66 -9.04,10.18 -11.79,16.54 -2.86,6.36 -4.24,13.04 -4.24,20.14l0 165.88c0,7.1 1.37,13.78 4.24,19.93 2.74,6.25 6.75,11.77 11.79,16.43 5.04,4.66 10.98,8.37 17.73,11.13 6.64,2.86 13.96,4.24 21.86,4.24 7.89,0 15.22,-1.38 21.86,-4.24 6.75,-2.76 12.7,-6.47 17.74,-11.13 5.04,-4.66 9.04,-10.18 11.79,-16.43 2.86,-6.15 4.23,-12.82 4.23,-19.93l0 -168.11zm100.81 1.38c0,-11.13 2.4,-21.62 7.21,-31.48 4.81,-9.86 11.33,-18.44 19.57,-25.86 8.24,-7.31 17.85,-13.14 28.95,-17.38 10.98,-4.24 22.89,-6.36 35.59,-6.36 12.7,0 24.72,2.12 35.93,6.25 11.33,4.13 21.06,9.86 29.29,17.17 8.24,7.42 14.76,16 19.57,25.86 4.81,9.86 7.21,20.46 7.21,31.8l0 167.26c0,11.34 -2.4,21.94 -7.21,31.8 -4.8,9.86 -11.33,18.44 -19.57,25.86 -8.24,7.31 -17.96,13.04 -29.29,17.17 -11.21,4.13 -23.23,6.25 -35.93,6.25 -12.7,0 -24.6,-2.12 -35.59,-6.25 -11.1,-4.13 -20.71,-9.86 -28.95,-17.17 -8.24,-7.42 -14.76,-16 -19.57,-25.86 -4.81,-9.86 -7.21,-20.46 -7.21,-31.8l0 -167.26zm36.39 166.73c0,7.1 1.48,13.78 4.35,19.93 2.86,6.25 6.86,11.77 11.9,16.43 4.92,4.66 10.76,8.37 17.51,11.13 6.64,2.86 13.85,4.24 21.74,4.24 7.79,0 14.99,-1.38 21.63,-4.24 6.75,-2.76 12.59,-6.47 17.51,-11.13 5.03,-4.66 8.93,-10.18 11.79,-16.43 2.74,-6.15 4.12,-12.82 4.12,-19.93l0 -165.88c0,-7.1 -1.37,-13.78 -4.12,-20.14 -2.86,-6.36 -6.75,-11.87 -11.79,-16.54 -4.92,-4.66 -10.76,-8.37 -17.51,-11.13 -6.64,-2.86 -13.84,-4.24 -21.63,-4.24 -7.89,0 -15.1,1.38 -21.74,4.24 -6.75,2.76 -12.59,6.46 -17.51,11.13 -5.04,4.66 -9.04,10.18 -11.9,16.43 -2.86,6.15 -4.35,12.83 -4.35,19.93l0 166.2z"/>
   <path class="fil12" d="M6705 2992.4c0,-6.04 3.32,-9.01 10.07,-9.01l16.82 0c2.75,0 4.81,0.85 6.07,2.44 1.37,1.7 2.06,3.82 2.06,6.57l0 10.49c0,7.31 1.37,13.99 4.12,20.03 2.86,6.15 6.75,11.45 11.79,15.9 4.92,4.45 10.87,7.95 17.85,10.49 6.87,2.65 14.42,3.92 22.66,3.92 7.55,0 14.76,-1.38 21.4,-4.24 6.75,-2.76 12.59,-6.57 17.51,-11.34 5.04,-4.77 8.92,-10.28 11.79,-16.64 2.75,-6.25 4.12,-13.04 4.12,-20.35 0,-6.99 -1.71,-13.67 -5.04,-19.71 -3.32,-6.15 -8.35,-12.3 -14.99,-18.55 -6.75,-6.25 -14.99,-12.72 -24.83,-19.4 -9.73,-6.78 -21.05,-14.31 -33.75,-22.58 -8.24,-5.19 -16.25,-10.49 -24.03,-16 -7.89,-5.51 -14.76,-11.66 -20.83,-18.34 -5.95,-6.78 -10.87,-14.31 -14.53,-22.79 -3.66,-8.37 -5.49,-17.91 -5.49,-28.73 0,-11.23 2.18,-21.73 6.53,-31.59 4.35,-9.86 10.41,-18.44 18.08,-25.76 7.67,-7.42 16.82,-13.14 27.46,-17.28 10.64,-4.13 22.31,-6.25 35.01,-6.25 13.16,0 25.17,2.01 36.16,6.15 10.87,4.13 20.37,9.86 28.26,17.17 7.9,7.21 14.08,15.79 18.42,25.65 4.35,9.86 6.52,20.46 6.52,31.8l0 11.24c0,4.98 -2.97,7.42 -9.04,7.42l-16.48 0c-5.84,0 -8.81,-2.65 -8.81,-8.06l0 -10.92c0,-7 -1.37,-13.67 -4.12,-20.04 -2.86,-6.25 -6.64,-11.66 -11.44,-16.22 -4.69,-4.56 -10.41,-8.16 -16.94,-10.92 -6.64,-2.65 -13.62,-4.03 -21.17,-4.03 -7.78,0 -14.88,1.38 -21.17,4.03 -6.41,2.76 -11.79,6.36 -16.36,11.02 -4.58,4.66 -8.12,10.18 -10.64,16.54 -2.63,6.36 -3.89,13.04 -3.89,20.03 0,7.32 1.03,13.46 2.97,18.66 2.06,5.19 5.26,10.07 9.84,14.63 4.58,4.56 10.53,9.22 17.85,13.99 7.33,4.77 16.37,10.39 27.12,16.85 9.96,5.94 20.03,12.3 30.1,18.97 10.18,6.57 19.34,13.99 27.58,22.05 8.24,8.06 14.99,17.17 20.14,27.03 5.27,9.96 7.89,21.2 7.89,33.6 0,11.45 -2.17,22.15 -6.63,32.22 -4.46,10.07 -10.64,18.87 -18.65,26.28 -7.89,7.42 -17.39,13.36 -28.38,17.7 -11.1,4.35 -23.23,6.57 -36.62,6.57 -15.45,0 -28.95,-2.12 -40.51,-6.47 -11.56,-4.35 -21.29,-10.17 -28.95,-17.38 -7.67,-7.31 -13.39,-15.9 -17.17,-25.75 -3.78,-9.86 -5.72,-20.25 -5.72,-31.16l0 -9.96z"/>
  </g>
 </g>
</svg>
