<?xml version="1.0" encoding="utf-8"?>
<svg version="1.1" x="0px" y="0px" viewBox="0 0 1000 1000" enable-background="new 0 0 1000 1000" xmlns="http://www.w3.org/2000/svg">
  <g>
    <path d="M761.5,10h-523c-16.4,0-29.7,13.3-29.7,29.7v920.5c0,16.4,13.4,29.7,29.7,29.7h522.9c16.4,0,29.7-13.4,29.7-29.7V39.8C791.2,23.3,777.9,10,761.5,10L761.5,10z M500.1,900.1c-24.5,0-44.5-20-44.5-44.5s20-44.5,44.5-44.5s44.5,19.9,44.5,44.5C544.5,880.1,524.6,900.1,500.1,900.1z M716.9,727.6H283.3V111.4h433.6V727.6z" style="fill: rgb(11, 214, 221);"/>
  </g>
</svg>